<svg width="18" height="18" viewBox="0 0 18 18" fill="none" xmlns="http://www.w3.org/2000/svg">
<path d="M8.11697 2.57967C8.6236 2.14011 9.3764 2.14011 9.88303 2.57967L10.0672 2.73945C10.3798 3.01067 10.7997 3.12318 11.2061 3.0446L11.4454 2.99831C12.104 2.87096 12.7559 3.24736 12.9749 3.88134L13.0545 4.1118C13.1896 4.50299 13.497 4.81039 13.8882 4.9455L14.1187 5.02511C14.7526 5.24409 15.129 5.89602 15.0017 6.55456L14.9554 6.79394C14.8768 7.20028 14.9893 7.62019 15.2606 7.93281L15.4203 8.11697C15.8599 8.6236 15.8599 9.3764 15.4203 9.88303L15.2606 10.0672C14.9893 10.3798 14.8768 10.7997 14.9554 11.2061L15.0017 11.4454C15.129 12.104 14.7526 12.7559 14.1187 12.9749L13.8882 13.0545C13.497 13.1896 13.1896 13.497 13.0545 13.8882L12.9749 14.1187C12.7559 14.7526 12.104 15.129 11.4454 15.0017L11.2061 14.9554C10.7997 14.8768 10.3798 14.9893 10.0672 15.2606L9.88303 15.4203C9.3764 15.8599 8.6236 15.8599 8.11697 15.4203L7.93281 15.2606C7.62019 14.9893 7.20028 14.8768 6.79394 14.9554L6.55456 15.0017C5.89602 15.129 5.24409 14.7526 5.02511 14.1187L4.9455 13.8882C4.81039 13.497 4.50299 13.1896 4.1118 13.0545L3.88134 12.9749C3.24736 12.7559 2.87096 12.104 2.99831 11.4454L3.0446 11.2061C3.12318 10.7997 3.01067 10.3798 2.73945 10.0672L2.57967 9.88303C2.14011 9.3764 2.14011 8.6236 2.57967 8.11697L2.73945 7.93281C3.01067 7.62019 3.12318 7.20028 3.0446 6.79394L2.99831 6.55456C2.87096 5.89602 3.24736 5.24409 3.88134 5.02511L4.1118 4.9455C4.50299 4.81039 4.81039 4.50299 4.9455 4.1118L5.02511 3.88134C5.24409 3.24736 5.89602 2.87096 6.55456 2.99831L6.79394 3.0446C7.20028 3.12318 7.62019 3.01067 7.93281 2.73945L8.11697 2.57967Z" fill="#45A05A"/>
<path fill-rule="evenodd" clip-rule="evenodd" d="M11.2025 7.6156C11.4022 7.8153 11.4022 8.13907 11.2025 8.33877L8.95248 10.5888C8.75278 10.7885 8.429 10.7885 8.2293 10.5888L6.79748 9.15695C6.59778 8.95725 6.59778 8.63348 6.79748 8.43378C6.99718 8.23408 7.32096 8.23408 7.52066 8.43378L8.59089 9.50401L10.4793 7.6156C10.679 7.4159 11.0028 7.4159 11.2025 7.6156Z" fill="white"/>
</svg>